<svg xmlns="http://www.w3.org/2000/svg" xmlns:xlink="http://www.w3.org/1999/xlink" version="1.1" x="0px" y="0px" viewBox="0 0 20 25" enable-background="new 0 0 20 20" xml:space="preserve"><path fill="#000000" d="M17,10c-1.3,0-2.5,0.9-2.8,2.1c-1.8,0.4-3.2,2-3.2,3.9v0.5c0,0.8-0.7,1.5-1.5,1.5C8.7,18,8,17.3,8,16.5v-3.6  c2.4-0.4,4.4-2.1,5-4.5L13.9,5c0.2-1.2-0.1-2.5-0.9-3.5C12.2,0.6,11,0,9.8,0c-0.6,0-1,0.4-1,1c0,0.6,0.4,1,1,1  c0.7,0,1.3,0.3,1.7,0.8C11.9,3.3,12.1,4,12,4.6l-0.9,3.3C10.6,9.7,8.9,11,7,11S3.4,9.7,2.9,7.9L2,4.6C1.9,4,2.1,3.3,2.5,2.8  C2.9,2.3,3.6,2,4.2,2c0.6,0,1-0.4,1-1c0-0.6-0.4-1-1-1C3,0,1.8,0.6,1,1.5c-0.8,1-1.1,2.2-0.9,3.6L1,8.4c0.6,2.4,2.6,4.1,5,4.5v3.6  C6,18.4,7.6,20,9.5,20s3.5-1.6,3.5-3.5V16c0-0.8,0.5-1.5,1.2-1.8c0.5,1.1,1.5,1.8,2.8,1.8c1.7,0,3-1.3,3-3S18.6,10,17,10z M17,14  c-0.6,0-1-0.4-1-1c0-0.6,0.4-1,1-1c0.6,0,1,0.4,1,1C18,13.6,17.5,14,17,14z"/><text x="0" y="35" fill="#000000" font-size="5px" font-weight="bold" font-family="'Helvetica Neue', Helvetica, Arial-Unicode, Arial, Sans-serif">Created by ProSymbols</text><text x="0" y="40" fill="#000000" font-size="5px" font-weight="bold" font-family="'Helvetica Neue', Helvetica, Arial-Unicode, Arial, Sans-serif">from the Noun Project</text></svg>