<?xml version="1.0" encoding="UTF-8" standalone="no"?>
<!-- Created with Inkscape (http://www.inkscape.org/) -->

<svg
   xmlns:dc="http://purl.org/dc/elements/1.1/"
   xmlns:cc="http://creativecommons.org/ns#"
   xmlns:rdf="http://www.w3.org/1999/02/22-rdf-syntax-ns#"
   xmlns:svg="http://www.w3.org/2000/svg"
   xmlns="http://www.w3.org/2000/svg"
   xmlns:sodipodi="http://sodipodi.sourceforge.net/DTD/sodipodi-0.dtd"
   xmlns:inkscape="http://www.inkscape.org/namespaces/inkscape"
   width="300"
   height="100"
   viewBox="0 0 300.00001 100"
   id="svg2"
   version="1.1"
   inkscape:version="0.91 r13725"
   sodipodi:docname="temudokter-logo.svg">
  <defs
     id="defs4" />
  <sodipodi:namedview
     id="base"
     pagecolor="#545454"
     bordercolor="#666666"
     borderopacity="1.0"
     inkscape:pageopacity="0"
     inkscape:pageshadow="2"
     inkscape:zoom="1.504936"
     inkscape:cx="194.54994"
     inkscape:cy="47.24944"
     inkscape:document-units="px"
     inkscape:current-layer="layer1"
     showgrid="false"
     units="px"
     inkscape:window-width="1366"
     inkscape:window-height="744"
     inkscape:window-x="0"
     inkscape:window-y="24"
     inkscape:window-maximized="1"
     inkscape:object-nodes="true"
     inkscape:object-paths="true" />
  <metadata
     id="metadata7">
    <rdf:RDF>
      <cc:Work
         rdf:about="">
        <dc:format>image/svg+xml</dc:format>
        <dc:type
           rdf:resource="http://purl.org/dc/dcmitype/StillImage" />
        <dc:title></dc:title>
      </cc:Work>
    </rdf:RDF>
  </metadata>
  <g
     inkscape:label="Layer 1"
     inkscape:groupmode="layer"
     id="layer1"
     transform="translate(0,-952.36216)">
    <g
       id="g4499"
       transform="translate(-2.4995997,0.24413)">
      <path
         inkscape:connector-curvature="0"
         id="path4497"
         d="m 29.128906,956.79966 c -6.572835,0 -12.600366,3.08826 -16.77539,7.78516 -0.06106,0.069 -0.120324,0.13913 -0.177735,0.21093 -4.0916286,5.1145 -5.6783342,11.71651 -4.7128904,18.47461 0.031489,0.2181 0.076497,0.43399 0.1347656,0.64649 l 3.5703128,13.09179 c 2.545697,10.18276 10.292014,17.77726 19.841797,20.86136 l 0,10.248 c 0,10.5859 8.732531,19.3184 19.318359,19.3184 10.585829,0 19.318359,-8.7325 19.318359,-19.3184 l 0,-0.4687 c 2.983125,2.3049 6.636514,3.7871 10.681641,3.7871 9.511396,0 17.318359,-7.807 17.318359,-17.3184 0,-9.7199 -8.037501,-17.31834 -17.318359,-17.31834 -5.357997,0 -10.213413,2.54877 -13.345703,6.56644 1.044712,-1.9899 1.936667,-4.0847 2.503906,-6.3516 l 3.582031,-13.53515 c 0.04272,-0.1604 0.07792,-0.32273 0.105469,-0.48633 1.044146,-6.2648 -0.493793,-12.94787 -4.693359,-18.19727 -0.05741,-0.072 -0.116677,-0.14223 -0.177735,-0.21093 -4.175023,-4.6969 -10.202554,-7.78516 -16.77539,-7.78516 -2.38189,0 -4.885658,0.8837 -6.660156,2.6582 -1.774502,1.7745 -2.658204,4.27836 -2.658204,6.66016 0,2.3819 0.883702,4.88566 2.658204,6.66016 1.7745,1.7745 4.278266,2.6582 6.660156,2.6582 1.278907,0 2.020739,0.42048 2.648437,1.20508 0.613056,0.7663 0.974544,2.29789 0.898438,2.93359 l -3.470703,12.7207 c -1.344577,4.8404 -6.100676,8.50395 -11.275391,8.50395 -5.174714,0 -9.930815,-3.66355 -11.275391,-8.50395 l -3.470703,-12.7207 c -0.07611,-0.6357 0.285381,-2.16729 0.898438,-2.93359 0.35758,-0.447 2.023045,-1.20508 2.648437,-1.20508 2.38189,0 4.885655,-0.8837 6.660156,-2.6582 1.774502,-1.7745 2.658204,-4.27826 2.658204,-6.66016 0,-2.3818 -0.883702,-4.88566 -2.658204,-6.66016 -1.774501,-1.7745 -4.278266,-2.6582 -6.660156,-2.6582 z"
         style="font-style:normal;font-variant:normal;font-weight:normal;font-stretch:normal;font-size:50px;line-height:125%;font-family:Bungee;-inkscape-font-specification:Bungee;letter-spacing:-3.19000006px;word-spacing:0px;fill:#ffffff;fill-opacity:1;stroke:none;stroke-width:1px;stroke-linecap:butt;stroke-linejoin:miter;stroke-opacity:1" />
      <path
         id="path4495"
         d="m 99.144531,957.29185 c -1.47344,0 -3.546276,0.38446 -5.171875,2.00976 l -0.002,0 c -1.757375,1.7574 -1.960937,3.73445 -1.960937,5.12305 l 0,6.10742 c 0,1.3886 0.251143,3.26091 1.748046,4.94531 0.138368,0.1557 0.285757,0.30301 0.441407,0.44141 1.684457,1.4973 3.556722,1.74805 4.945312,1.74805 l 2.101556,0 0,19.46484 c 0,0.8815 0.24245,1.95895 0.69922,3.05861 l -0.73047,0 c -1.483959,0 -3.548021,0.3861 -5.173821,2.0117 l -0.002,0 c -1.757379,1.7575 -1.960937,3.7345 -1.960937,5.1231 l 0,32.707 c 0,1.3887 0.250261,3.2605 1.748047,4.9453 0.13837,0.1556 0.285756,0.303 0.441406,0.4414 1.69293,1.5049 3.55869,1.748 4.947265,1.748 l 13.50586,0 3.50391,0 13.64648,0 8.82032,0 16.52734,0 24.36133,0 7.71484,0 c 0.0116,10e-5 0.0256,0 0.0371,0 l 7.77149,0 c 0.0113,0 0.0257,0 0.0371,0 l 12.70704,0 c 0.0226,2e-4 0.0499,0 0.0723,0 l 8.17578,0 c 0.0232,0 0.0526,0 0.0762,0 l 14.375,0 c 0.0344,4e-4 0.0755,0.01 0.10937,0.01 l 23.41797,0 c 0.0269,0 0.0586,-0.01 0.0859,-0.01 l 6.21484,0 c 0.027,5e-4 0.0574,0.01 0.084,0.01 l 7.77344,0 c 0.0333,0 0.0754,-0.01 0.10938,-0.01 l 12.40039,0 c 0.0344,4e-4 0.0755,0.01 0.10937,0.01 l 7.82227,0 c 0.0345,0 0.078,-0.01 0.11328,-0.01 l 1.71484,0 0,-0.1679 c 1.05691,-0.2207 2.21696,-0.7101 3.29493,-1.7871 l 0.002,0 c 1.61677,-1.618 2.01172,-3.6889 2.01172,-5.1719 l 0,-10.7012 c 0,-3.0645 -0.95482,-6.2464 -3.05274,-8.6094 -0.21148,-0.2416 -0.52912,-0.3656 -0.76172,-0.5878 0.32666,-1.2708 0.53321,-2.5626 0.53321,-3.875 l 0,-2.3223 c 0,-3.494 -1.17316,-7.0459 -3.55664,-9.6289 -2.97668,-3.304 -7.20726,-4.1192 -11.70508,-4.1192 -7.61439,0.013 -16.34176,0.1856 -23.19336,0 l -23.41797,0 c -0.67331,0 -1.48162,0.1205 -2.29883,0.3594 1.584,-1.37232 2.92945,-3.09296 3.64453,-5.10936 0.69995,-1.9182 1.02344,-3.95925 1.02344,-6.03125 l 0,-24.98437 c 0,-1.4117 -0.42571,-3.44867 -2.06445,-5.07227 -1.62363,-1.6378 -3.66828,-2.0625 -5.07032,-2.0625 l -5.54296,0 0,-0.002 -14.0918,0 -7.92383,0 -7.1582,0 -8.17578,0 -15.95117,0 -8.125,0 -6.38477,0 -23.41992,0 -5.32227,0 -4.14258,0 -22.507812,0 0,-0.002 z"
         style="font-style:normal;font-variant:normal;font-weight:normal;font-stretch:normal;font-size:50px;line-height:125%;font-family:Bungee;-inkscape-font-specification:Bungee;letter-spacing:-3.19000006px;word-spacing:0px;fill:#ffffff;fill-opacity:1;stroke:none;stroke-width:1px;stroke-linecap:butt;stroke-linejoin:miter;stroke-opacity:1"
         inkscape:connector-curvature="0" />
      <path
         id="path4493"
         d="m 232.22852,1001.9911 0.4414,0.4414 c -0.0801,-0.09 -0.18309,-0.092 -0.26562,-0.1758 -0.0835,-0.083 -0.0854,-0.1853 -0.17578,-0.2656 z"
         style="font-style:normal;font-variant:normal;font-weight:normal;font-stretch:normal;font-size:50px;line-height:125%;font-family:Bungee;-inkscape-font-specification:Bungee;letter-spacing:-3.19000006px;word-spacing:0px;fill:#ffffff;fill-opacity:1;stroke:none;stroke-width:1px;stroke-linecap:butt;stroke-linejoin:miter;stroke-opacity:1"
         inkscape:connector-curvature="0" />
      <path
         id="path4491"
         d="m 60.355469,1006.1141 0,0 c -0.0048,0.01 -0.0089,0.02 -0.01367,0.029 l -0.01172,0 c 0.0078,-0.012 0.01757,-0.022 0.02539,-0.033 z"
         style="font-style:normal;font-variant:normal;font-weight:normal;font-stretch:normal;font-size:50px;line-height:125%;font-family:Bungee;-inkscape-font-specification:Bungee;letter-spacing:-3.19000006px;word-spacing:0px;fill:#ffffff;fill-opacity:1;stroke:none;stroke-width:1px;stroke-linecap:butt;stroke-linejoin:miter;stroke-opacity:1"
         inkscape:connector-curvature="0" />
      <path
         id="path4458"
         d="m 293.46875,1021.9286 -0.0332,0.082 c 0.009,-0.02 0.009,-0.04 0.0176,-0.06 0.003,-0.01 0.0123,-0.013 0.0156,-0.022 z"
         style="font-style:normal;font-variant:normal;font-weight:normal;font-stretch:normal;font-size:50px;line-height:125%;font-family:Bungee;-inkscape-font-specification:Bungee;letter-spacing:-3.19000006px;word-spacing:0px;fill:#ffffff;fill-opacity:1;stroke:none;stroke-width:1px;stroke-linecap:butt;stroke-linejoin:miter;stroke-opacity:1"
         inkscape:connector-curvature="0" />
      <g
         style="fill:#42a5f5"
         transform="matrix(1.0094636,0,0,1.0094636,35.220588,-2.8476854)"
         id="g4195">
        <g
           style="fill:#42a5f5"
           id="g4181">
          <path
             d="m 80.585452,992.40399 -8.1,0 q -0.95,0 -1.4,-0.4 -0.4,-0.45 -0.4,-1.4 l 0,-24.55 -7.35,0 q -0.95,0 -1.4,-0.4 -0.4,-0.45 -0.4,-1.4 l 0,-6.05 q 0,-0.95 0.4,-1.35 0.45,-0.45 1.4,-0.45 l 26.4,0 q 0.95,0 1.35,0.45 0.45,0.4 0.45,1.35 l 0,6.05 q 0,0.95 -0.45,1.4 -0.4,0.4 -1.35,0.4 l -7.35,0 0,24.55 q 0,0.95 -0.45,1.4 -0.4,0.4 -1.35,0.4 z"
             style="font-style:normal;font-variant:normal;font-weight:normal;font-stretch:normal;font-size:50px;line-height:125%;font-family:Bungee;-inkscape-font-specification:Bungee;letter-spacing:-3.19000006px;word-spacing:0px;fill:#42a5f5;fill-opacity:1;stroke:none;stroke-width:1px;stroke-linecap:butt;stroke-linejoin:miter;stroke-opacity:1"
             id="path4151"
             inkscape:connector-curvature="0" />
          <path
             d="m 118.20795,992.40399 -23.199998,0 q -0.95,0 -1.4,-0.4 -0.4,-0.45 -0.4,-1.4 l 0,-32.4 q 0,-0.95 0.4,-1.35 0.45,-0.45 1.4,-0.45 l 23.199998,0 q 0.95,0 1.35,0.45 0.45,0.4 0.45,1.35 l 0,5.85 q 0,0.95 -0.45,1.4 -0.4,0.4 -1.35,0.4 l -13.8,0 0,3.85 9.75,0 q 0.95,0 1.35,0.45 0.45,0.4 0.45,1.35 l 0,5.35 q 0,0.95 -0.45,1.4 -0.4,0.4 -1.35,0.4 l -9.75,0 0,4.3 13.8,0 q 0.95,0 1.35,0.45 0.45,0.4 0.45,1.35 l 0,5.85 q 0,0.95 -0.45,1.4 -0.4,0.4 -1.35,0.4 z"
             style="font-style:normal;font-variant:normal;font-weight:normal;font-stretch:normal;font-size:50px;line-height:125%;font-family:Bungee;-inkscape-font-specification:Bungee;letter-spacing:-3.19000006px;word-spacing:0px;fill:#42a5f5;fill-opacity:1;stroke:none;stroke-width:1px;stroke-linecap:butt;stroke-linejoin:miter;stroke-opacity:1"
             id="path4153"
             inkscape:connector-curvature="0" />
          <path
             d="m 131.98279,992.40399 -7.45,0 q -0.95,0 -1.4,-0.4 -0.4,-0.45 -0.4,-1.4 l 0,-32.4 q 0,-0.95 0.4,-1.35 0.45,-0.45 1.4,-0.45 l 8.05,0 q 0.8,0 1.3,0.35 0.55,0.35 1,1.15 l 4.5,8.15 q 0.25,0.45 0.4,0.65 0.2,0.2 0.5,0.2 l 0.45,0 q 0.3,0 0.45,-0.2 0.2,-0.2 0.45,-0.65 l 4.45,-8.15 q 0.45,-0.8 0.95,-1.15 0.55,-0.35 1.35,-0.35 l 8.1,0 q 0.95,0 1.35,0.45 0.45,0.4 0.45,1.35 l 0,32.4 q 0,0.95 -0.45,1.4 -0.4,0.4 -1.35,0.4 l -7.7,0 q -0.95,0 -1.4,-0.4 -0.4,-0.45 -0.4,-1.4 l 0,-17.6 -2.95,5.45 q -0.45,0.85 -1.1,1.25 -0.6,0.35 -1.55,0.35 l -2,0 q -0.95,0 -1.6,-0.35 -0.6,-0.4 -1.05,-1.25 l -2.95,-5.45 0,17.6 q 0,0.95 -0.45,1.4 -0.4,0.4 -1.35,0.4 z"
             style="font-style:normal;font-variant:normal;font-weight:normal;font-stretch:normal;font-size:50px;line-height:125%;font-family:Bungee;-inkscape-font-specification:Bungee;letter-spacing:-3.19000006px;word-spacing:0px;fill:#42a5f5;fill-opacity:1;stroke:none;stroke-width:1px;stroke-linecap:butt;stroke-linejoin:miter;stroke-opacity:1"
             id="path4155"
             inkscape:connector-curvature="0" />
          <path
             d="m 192.67327,982.95399 q 0,2.3 -0.7,4.2 -0.65,1.85 -2.4,3.2 -1.7,1.3 -4.7,2.05 -3,0.75 -7.65,0.75 -4.65,0 -7.65,-0.75 -3,-0.75 -4.75,-2.05 -1.7,-1.35 -2.4,-3.2 -0.65,-1.9 -0.65,-4.2 l 0,-24.75 q 0,-0.95 0.4,-1.35 0.45,-0.45 1.4,-0.45 l 7.85,0 q 0.95,0 1.35,0.45 0.45,0.4 0.45,1.35 l 0,22.8 q 0,1 0.75,1.7 0.75,0.65 3.35,0.65 2.65,0 3.4,-0.65 0.75,-0.7 0.75,-1.7 l 0,-22.8 q 0,-0.95 0.4,-1.35 0.45,-0.45 1.4,-0.45 l 7.6,0 q 0.95,0 1.35,0.45 0.45,0.4 0.45,1.35 l 0,24.75 z"
             style="font-style:normal;font-variant:normal;font-weight:normal;font-stretch:normal;font-size:50px;line-height:125%;font-family:Bungee;-inkscape-font-specification:Bungee;letter-spacing:-3.19000006px;word-spacing:0px;fill:#42a5f5;fill-opacity:1;stroke:none;stroke-width:1px;stroke-linecap:butt;stroke-linejoin:miter;stroke-opacity:1"
             id="path4157"
             inkscape:connector-curvature="0" />
        </g>
        <g
           style="fill:#42a5f5"
           id="g4187"
           transform="translate(0,-20)">
          <path
             d="m 82.235452,1054.904 -16.85,0 q -0.95,0 -1.4,-0.4 -0.4,-0.45 -0.4,-1.4 l 0,-32.4 q 0,-0.95 0.4,-1.35 0.45,-0.45 1.4,-0.45 l 16.85,0 q 6.25,0 9.25,2.5 3.05,2.5 3.05,7.7 l 0,15.6 q 0,5.2 -3.05,7.7 -3,2.5 -9.25,2.5 z m -7.3,-26.45 0,17 5.95,0 q 1.2,0 1.75,-0.6 0.6,-0.6 0.6,-1.85 l 0,-12.15 q 0,-1.25 -0.6,-1.8 -0.55,-0.6 -1.75,-0.6 l -5.95,0 z"
             style="font-style:normal;font-variant:normal;font-weight:normal;font-stretch:normal;font-size:50px;line-height:125%;font-family:Bungee;-inkscape-font-specification:Bungee;letter-spacing:-3.19000006px;word-spacing:0px;fill:#42a5f5;fill-opacity:1;stroke:none;stroke-width:1px;stroke-linecap:butt;stroke-linejoin:miter;stroke-opacity:1"
             id="path4159"
             inkscape:connector-curvature="0" />
          <path
             d="m 128.20014,1045.454 q 0,2.3 -0.7,4.2 -0.65,1.85 -2.4,3.2 -1.7,1.3 -4.75,2.05 -3,0.75 -7.65,0.75 -4.65,0 -7.7,-0.75 -3.05,-0.75 -4.8,-2.05 -1.699999,-1.35 -2.399999,-3.2 -0.65,-1.9 -0.65,-4.2 l 0,-17.05 q 0,-2.3 0.65,-4.15 0.7,-1.9 2.399999,-3.25 1.75,-1.35 4.8,-2.1 3.05,-0.75 7.7,-0.75 4.65,0 7.65,0.75 3.05,0.75 4.75,2.1 1.75,1.35 2.4,3.25 0.7,1.85 0.7,4.15 l 0,17.05 z m -19.7,-1.8 q 0,1 0.75,1.7 0.75,0.65 3.45,0.65 2.7,0 3.45,-0.65 0.75,-0.7 0.75,-1.7 l 0,-13.45 q 0,-0.95 -0.75,-1.6 -0.75,-0.7 -3.45,-0.7 -2.7,0 -3.45,0.7 -0.75,0.65 -0.75,1.6 l 0,13.45 z"
             style="font-style:normal;font-variant:normal;font-weight:normal;font-stretch:normal;font-size:50px;line-height:125%;font-family:Bungee;-inkscape-font-specification:Bungee;letter-spacing:-3.19000006px;word-spacing:0px;fill:#42a5f5;fill-opacity:1;stroke:none;stroke-width:1px;stroke-linecap:butt;stroke-linejoin:miter;stroke-opacity:1"
             id="path4161"
             inkscape:connector-curvature="0" />
          <path
             d="m 140.87655,1054.904 -7.75,0 q -0.95,0 -1.4,-0.4 -0.4,-0.45 -0.4,-1.4 l 0,-32.4 q 0,-0.95 0.4,-1.35 0.45,-0.45 1.4,-0.45 l 7.75,0 q 0.95,0 1.35,0.45 0.45,0.4 0.45,1.35 l 0,11.5 2,0 5.15,-11.65 q 0.35,-0.9 0.95,-1.25 0.6,-0.4 1.55,-0.4 l 7.7,0 q 0.85,0 1.15,0.45 0.3,0.4 -0.05,1.2 l -5.1,11.65 q 2.8,0.15 4.45,2 1.7,1.8 1.7,4.8 l 0,14.1 q 0,0.95 -0.45,1.4 -0.4,0.4 -1.35,0.4 l -7.7,0 q -0.95,0 -1.4,-0.4 -0.4,-0.45 -0.4,-1.4 l 0,-9.75 q 0,-0.8 -0.4,-1.25 -0.4,-0.45 -1.2,-0.45 l -6.6,0 0,11.45 q 0,0.95 -0.45,1.4 -0.4,0.4 -1.35,0.4 z"
             style="font-style:normal;font-variant:normal;font-weight:normal;font-stretch:normal;font-size:50px;line-height:125%;font-family:Bungee;-inkscape-font-specification:Bungee;letter-spacing:-3.19000006px;word-spacing:0px;fill:#42a5f5;fill-opacity:1;stroke:none;stroke-width:1px;stroke-linecap:butt;stroke-linejoin:miter;stroke-opacity:1"
             id="path4163"
             inkscape:connector-curvature="0" />
          <path
             d="m 181.1717,1054.904 -8.1,0 q -0.95,0 -1.4,-0.4 -0.4,-0.45 -0.4,-1.4 l 0,-24.55 -7.35,0 q -0.95,0 -1.4,-0.4 -0.4,-0.45 -0.4,-1.4 l 0,-6.05 q 0,-0.95 0.4,-1.35 0.45,-0.45 1.4,-0.45 l 26.4,0 q 0.95,0 1.35,0.45 0.45,0.4 0.45,1.35 l 0,6.05 q 0,0.95 -0.45,1.4 -0.4,0.4 -1.35,0.4 l -7.35,0 0,24.55 q 0,0.95 -0.45,1.4 -0.4,0.4 -1.35,0.4 z"
             style="font-style:normal;font-variant:normal;font-weight:normal;font-stretch:normal;font-size:50px;line-height:125%;font-family:Bungee;-inkscape-font-specification:Bungee;letter-spacing:-3.19000006px;word-spacing:0px;fill:#42a5f5;fill-opacity:1;stroke:none;stroke-width:1px;stroke-linecap:butt;stroke-linejoin:miter;stroke-opacity:1"
             id="path4165"
             inkscape:connector-curvature="0" />
          <path
             d="m 218.79421,1054.904 -23.2,0 q -0.95,0 -1.4,-0.4 -0.4,-0.45 -0.4,-1.4 l 0,-32.4 q 0,-0.95 0.4,-1.35 0.45,-0.45 1.4,-0.45 l 23.2,0 q 0.95,0 1.35,0.45 0.45,0.4 0.45,1.35 l 0,5.85 q 0,0.95 -0.45,1.4 -0.4,0.4 -1.35,0.4 l -13.8,0 0,3.85 9.75,0 q 0.95,0 1.35,0.45 0.45,0.4 0.45,1.35 l 0,5.35 q 0,0.95 -0.45,1.4 -0.4,0.4 -1.35,0.4 l -9.75,0 0,4.3 13.8,0 q 0.95,0 1.35,0.45 0.45,0.4 0.45,1.35 l 0,5.85 q 0,0.95 -0.45,1.4 -0.4,0.4 -1.35,0.4 z"
             style="font-style:normal;font-variant:normal;font-weight:normal;font-stretch:normal;font-size:50px;line-height:125%;font-family:Bungee;-inkscape-font-specification:Bungee;letter-spacing:-3.19000006px;word-spacing:0px;fill:#42a5f5;fill-opacity:1;stroke:none;stroke-width:1px;stroke-linecap:butt;stroke-linejoin:miter;stroke-opacity:1"
             id="path4167"
             inkscape:connector-curvature="0" />
          <path
             d="m 234.61905,1027.904 0,6.4 3.75,0 q 1.3,0 1.75,-0.65 0.45,-0.7 0.45,-1.7 l 0,-1.7 q 0,-1 -0.45,-1.65 -0.45,-0.7 -1.75,-0.7 l -3.75,0 z m -1.8,27 -7.7,0 q -0.95,0 -1.4,-0.4 -0.4,-0.45 -0.4,-1.4 l 0,-32.4 q 0,-0.95 0.4,-1.35 0.45,-0.45 1.4,-0.45 l 16.65,0 q 5.6,0 7.7,2.35 2.15,2.3 2.15,6 l 0,2.3 q 0,2.1 -0.65,3.6 -0.6,1.45 -2.15,2.1 2.7,0.3 4.35,2.2 1.7,1.9 1.7,5.05 l 0,10.6 q 0,0.95 -0.45,1.4 -0.4,0.4 -1.35,0.4 l -7.75,0 q -0.95,0 -1.4,-0.4 -0.4,-0.45 -0.4,-1.4 l 0,-7.65 q 0,-1.1 -0.45,-1.6 -0.4,-0.55 -1.45,-0.55 l -7,0 0,9.8 q 0,0.95 -0.45,1.4 -0.4,0.4 -1.35,0.4 z"
             style="font-style:normal;font-variant:normal;font-weight:normal;font-stretch:normal;font-size:50px;line-height:125%;font-family:Bungee;-inkscape-font-specification:Bungee;letter-spacing:-3.19000006px;word-spacing:0px;fill:#42a5f5;fill-opacity:1;stroke:none;stroke-width:1px;stroke-linecap:butt;stroke-linejoin:miter;stroke-opacity:1"
             id="path4169"
             inkscape:connector-curvature="0" />
        </g>
      </g>
      <path
         id="path4326"
         d="m 80.338383,1002.1169 c -5.2,0 -10,3.6 -11.2,8.4 -7.2,1.6 -12.8,8 -12.8,15.6 l 0,2 c 0,3.2 -2.8,6 -6,6 -3.2,0 -6,-2.8 -6,-6 l 0,-14.4 c 9.6,-1.6 17.6,-8.4 20,-17.99991 l 3.6,-13.6 c 0.8,-4.8 -0.4,-10 -3.6,-14 -3.2,-3.6 -8,-6 -12.8,-6 -2.4,0 -4,1.6 -4,4 0,2.4 1.6,4 4,4 2.8,0 5.2,1.2 6.8,3.2 1.6,2 2.4,4.8 2,7.2 l -3.6,13.2 c -2,7.19991 -8.8,12.39991 -16.4,12.39991 -7.6,0 -14.4,-5.2 -16.4,-12.39991 l -3.6,-13.2 c -0.4,-2.4 0.4,-5.2 2,-7.2 1.6,-2 4.4,-3.2 6.8,-3.2 2.4,0 4,-1.6 4,-4 0,-2.4 -1.6,-4 -4,-4 -4.8,0 -9.6,2.4 -12.8,6 -3.2,4 -4.4,8.8 -3.6,14.4 l 3.6,13.2 c 2.4,9.59991 10.4,16.39991 20,17.99991 l 0,14.4 c 0,7.6 6.4,14 14,14 7.6,0 14,-6.4 14,-14 l 0,-2 c 0,-3.2 2,-6 4.8,-7.2 2,4.4 6,7.2 11.2,7.2 6.8,0 12.000004,-5.2 12.000004,-12 0,-6.8 -5.600004,-12 -12.000004,-12 z m 0,16 c -2.4,0 -4,-1.6 -4,-4 0,-2.4 1.6,-4 4,-4 2.4,0 4,1.6 4,4 0,2.4 -2,4 -4,4 z"
         inkscape:connector-curvature="0"
         style="fill:#0d47a1" />
    </g>
  </g>
</svg>
